<svg version="1.1" xmlns="http://www.w3.org/2000/svg" xmlns:xlink="http://www.w3.org/1999/xlink" width="1024" height="1024" viewBox="0,0,1024,1024"><g fill="none" fill-rule="nonzero" stroke="none" stroke-width="none" stroke-linecap="butt" stroke-linejoin="miter" stroke-miterlimit="10" stroke-dasharray="" stroke-dashoffset="0" font-family="none" font-weight="none" font-size="none" text-anchor="none" style="mix-blend-mode: normal"><rect x="0" y="0" width="1024" height="1024" fill="#ffffff" stroke="none" stroke-width="1"></rect><g id="svg4" fill="none" stroke="#000000" stroke-width="8"><path d="M870,531c-2.95,72.07 -26.96,140.48 -55.04,206.19c-53.12,95.42 -191.08,137.95 -284.19,75.33c-55.13,-24.45 -84.91,-80.36 -98.82,-136.24c-19.53,-51.68 -15.18,-108.2 -18.36,-162.44c7.77,-55.22 -5.83,-113.35 18.21,-166.19c10.82,-65.48 39.82,-131.49 99.15,-166.68c57.55,-31.53 134.85,-44.22 193.1,-7.32c69.54,34.2 97.14,113.71 128.06,179.46c15.78,36.67 4.47,78.53 18.89,114.9M182,240c1.88,37.6 -11.47,72.65 -45.82,82.41c-10.86,18.55 -22.26,38.14 -41.18,49.59M174,304c12.54,45.15 -3.71,92.49 3.59,138.55c-16.01,70.54 56.5,40.33 97.31,50.42c45.73,8.14 94.18,-10.41 138.09,6.04M178,489c-0.72,110.8 -5.91,221.49 -4.56,332.39c-0.28,32.22 -1.38,64.46 1.56,96.61" id="path2"></path></g><path d="" fill="none" stroke="#000000" stroke-width="1"></path></g></svg>